<?xml version="1.0" standalone="no"?><!DOCTYPE svg PUBLIC "-//W3C//DTD SVG 1.1//EN"
        "http://www.w3.org/Graphics/SVG/1.1/DTD/svg11.dtd">
<svg xmlns="http://www.w3.org/2000/svg" width="22" height="22" viewBox="0 0 64 64"
     data-testid="pollen-app-icon-ib_instabase" class="sc-csuSiG ftSGUa">
    <path fill="#8362AC" d="M28.288 35.235H6V58h22.288z"></path>
    <path fill="#EA4622"
          d="M17.143 28.765c6.152 0 11.14-5.096 11.14-11.383C28.283 11.097 23.295 6 17.143 6s-11.14 5.096-11.14 11.383c0 6.286 4.988 11.382 11.14 11.382Z"></path>
    <path fill="#32A980"
          d="M41.765 58h-6.048V35.235H46.86c2.955 0 5.788 1.2 7.877 3.334A11.51 11.51 0 0 1 58 46.617a11.51 11.51 0 0 1-3.263 8.05A11.02 11.02 0 0 1 46.86 58h-5.095Z"></path>
    <path fill="#EDA91E"
          d="M41.765 28.765h-6.048V6H46.86c1.463 0 2.912.294 4.263.866 1.352.572 2.58 1.41 3.614 2.468a11.402 11.402 0 0 1 2.415 3.693 11.597 11.597 0 0 1 0 8.711 11.402 11.402 0 0 1-2.415 3.693 11.127 11.127 0 0 1-3.614 2.468c-1.351.572-2.8.866-4.263.866h-5.095Z"></path>
</svg>
